# xmcd CD database file
#
# Track frame offsets:
#	180
#	13698
#	24914
#	37538
#	53350
#	65434
#	79818
#	93526
#	106223
#	118890
#	133522
#	148468
#	163639
#	176197
#	191715
#	205944
#	219505
#	232188
#	245359
#	260115
#	274708
#	288147
#	302201
#
# Disc length: 4192 seconds
#
# Revision: 0
# Processed by: cddbd v1.5.1PL2 Copyright (c) Steve Scherf et al.
# Submitted via: CDex 1.40Release
#
DISCID=4f105e17
DTITLE=Various Artist - Blues goes on CD  1
DYEAR=1900
DGENRE=Blues
TTITLE0=John Lee Williamson-Better Cut That Out
TTITLE1=John Lee Hooker-Boom Boom
TTITLE2=Lightnin Hopkins-I Can´t Stay Here In Your Town
TTITLE3=Sonny Boy Williamson-Decoration Blues
TTITLE4=Johne Lee Hooker-Find Me A Woman
TTITLE5=Muddy Waters-Burr Clover Blues
TTITLE6=Johne Lee Hooker-Bluebird
TTITLE7=T-Bone Walker-Don´t Leave Me Baby
TTITLE8=Sonny Boy Williamson-Early In The Morning
TTITLE9=Mississippi John Hurt-Spike Driver Blues
TTITLE10=Big Bill Broonzy-Good Jelly
TTITLE11=Muddy Waters-32 - 20 Blues
TTITLE12=Champio Jack Dupree-Gamblin Man Blues Champion
TTITLE13=Bessie Smith-Careless Love Blues
TTITLE14=Big Bill Broonzy-All I Got Belongs To You
TTITLE15=Roosevelt Sykes-44 Blues
TTITLE16=Bukka White-Pinebluff, Arkansas
TTITLE17=Leroy Carr-Mean Mistreater Mama
TTITLE18=Hot Lips Page-Thirsty Mama Blues
TTITLE19=Blind Boy Fuller-Baby You Gotta Change Your Mind
TTITLE20=John Lee Hooker-Ground Hog Blues
TTITLE21=Deford BaileyJohn Henry
TTITLE22=Big Joe Williams-His Spirit Lives On
EXTD=ID3G: 0
EXTT0=
EXTT1=
EXTT2=
EXTT3=
EXTT4=
EXTT5=
EXTT6=
EXTT7=
EXTT8=
EXTT9=
EXTT10=
EXTT11=
EXTT12=
EXTT13=
EXTT14=
EXTT15=
EXTT16=
EXTT17=
EXTT18=
EXTT19=
EXTT20=
EXTT21=
EXTT22=
PLAYORDER=
